<svg xmlns="http://www.w3.org/2000/svg" width="0" height="0"><symbol id="arrow-left" viewBox="0 0 16 16" fill="none"><path d="M12.667 8H3.333M8 12.667 3.333 8 8 3.333" stroke="#000" stroke-width="1.333" stroke-linecap="round" stroke-linejoin="round"/></symbol><symbol id="film" viewBox="0 0 59 59" fill="none"><path d="M48.724 4.917H10.276a5.36 5.36 0 0 0-5.36 5.359v38.448c0 2.96 2.4 5.36 5.36 5.36h38.448c2.96 0 5.36-2.4 5.36-5.36V10.276c0-2.96-2.4-5.36-5.36-5.36ZM17.208 4.917v49.166M41.792 4.917v49.166M4.917 29.5h49.166M4.917 17.209h12.291M4.917 41.791h12.291M41.792 41.791h12.291M41.792 17.209h12.291" stroke="#fff" stroke-width="4" stroke-linecap="round" stroke-linejoin="round"/></symbol><symbol id="search" viewBox="0 0 16 16" fill="none"><path d="M7.333 12.667A5.333 5.333 0 1 0 7.333 2a5.333 5.333 0 0 0 0 10.667ZM14 14l-2.9-2.9" stroke="#000" stroke-linecap="round" stroke-linejoin="round"/></symbol><symbol id="close" viewBox="0 0 32 32"><path d="M18.148 16 30.78 3.368a1.521 1.521 0 0 0-.08-2.069 1.525 1.525 0 0 0-2.068-.08L16 13.851 3.368 1.203a1.53 1.53 0 0 0-2.164 2.164l12.648 12.632L1.204 28.631a1.513 1.513 0 0 0-.428 1.714c.077.196.193.373.341.522s.326.265.522.341a1.522 1.522 0 0 0 1.714-.428l12.648-12.632L28.633 30.78a1.52 1.52 0 0 0 2.068-.08 1.523 1.523 0 0 0 .08-2.069L18.149 15.999z"/></symbol><symbol id="favorite" viewBox="0 0 14 13" fill="none"><path d="m7 12.88-.98-.98C2.38 8.68 0 6.51 0 3.85 0 1.68 1.68 0 3.85 0 5.04 0 6.23.56 7 1.47 7.77.56 8.96 0 10.15 0 12.32 0 14 1.68 14 3.85c0 2.66-2.38 4.83-6.02 8.05l-.98.98Z" fill="#B92F2C"/></symbol><symbol id="arrow-left (1)" viewBox="0 0 16 16" fill="none"><path d="M3.333 8h9.334M8 12.667 12.667 8 8 3.333" stroke="#000" stroke-width="1.333" stroke-linecap="round" stroke-linejoin="round"/></symbol><symbol id="icon-heart" viewBox="0 0 34 32"><path d="m17.231 31.705-2.412-2.412C5.859 21.367.001 16.025.001 9.478.001 4.136 4.136.001 9.478.001c2.929 0 5.858 1.378 7.754 3.618 1.895-2.24 4.825-3.618 7.754-3.618 5.342 0 9.477 4.135 9.477 9.477 0 6.548-5.858 11.889-14.818 19.815l-2.412 2.412z"/></symbol><symbol id="icon-arrow-right2" viewBox="0 0 32 32"><path d="m19.414 27.414 10-10a2 2 0 0 0 0-2.828l-10-10a2 2 0 1 0-2.828 2.828L23.172 14H4a2 2 0 1 0 0 4h19.172l-6.586 6.586c-.39.39-.586.902-.586 1.414s.195 1.024.586 1.414a2 2 0 0 0 2.828 0z"/></symbol></svg>