<svg xmlns="http://www.w3.org/2000/svg" width="0" height="0"><symbol id="arrow-left" viewBox="0 0 16 16" fill="none"><path d="M12.667 8H3.333M8 12.667 3.333 8 8 3.333" stroke="#000" stroke-width="1.333" stroke-linecap="round" stroke-linejoin="round"/></symbol><symbol id="film" viewBox="0 0 59 59" fill="none"><path d="M48.724 4.917H10.276a5.36 5.36 0 0 0-5.36 5.359v38.448c0 2.96 2.4 5.36 5.36 5.36h38.448c2.96 0 5.36-2.4 5.36-5.36V10.276c0-2.96-2.4-5.36-5.36-5.36ZM17.208 4.917v49.166M41.792 4.917v49.166M4.917 29.5h49.166M4.917 17.209h12.291M4.917 41.791h12.291M41.792 41.791h12.291M41.792 17.209h12.291" stroke="#fff" stroke-width="4" stroke-linecap="round" stroke-linejoin="round"/></symbol><symbol id="search" viewBox="0 0 16 16" fill="none"><path d="M7.333 12.667A5.333 5.333 0 1 0 7.333 2a5.333 5.333 0 0 0 0 10.667ZM14 14l-2.9-2.9" stroke="#000" stroke-linecap="round" stroke-linejoin="round"/></symbol><symbol id="close" viewBox="0 0 30 30" fill="none"><path d="m8 8 14 14M8 22 22 8" stroke="#000" stroke-width="2"/></symbol><symbol id="favorite" viewBox="0 0 14 13" fill="none"><path d="m7 12.88-.98-.98C2.38 8.68 0 6.51 0 3.85 0 1.68 1.68 0 3.85 0 5.04 0 6.23.56 7 1.47 7.77.56 8.96 0 10.15 0 12.32 0 14 1.68 14 3.85c0 2.66-2.38 4.83-6.02 8.05l-.98.98Z" fill="#B92F2C"/></symbol><symbol id="arrow-left (1)" viewBox="0 0 16 16" fill="none"><path d="M3.333 8h9.334M8 12.667 12.667 8 8 3.333" stroke="#000" stroke-width="1.333" stroke-linecap="round" stroke-linejoin="round"/></symbol></svg>